<?xml version="1.0" encoding="UTF-8"?><svg id="Layer_2" xmlns="http://www.w3.org/2000/svg" width="512" height="512" viewBox="0 0 512 512"><defs><style>.cls-1{fill:#bc002d;}.cls-1,.cls-2,.cls-3{stroke-width:0px;}.cls-2{fill:#000;}.cls-3{fill:#fff;}</style></defs><g id="Layer_1-2"><rect class="cls-3" width="512" height="512" rx="100" ry="100"/><path class="cls-2" d="M303.09,329.43c1.73-.12,3.46-.24,5.18-.36-1.72.13-3.45.25-5.18.36Z"/><path class="cls-2" d="M296.9,329.82c1.63-.09,3.26-.19,4.88-.3-1.62.11-3.25.2-4.88.3Z"/><path class="cls-2" d="M290.65,330.15c1.54-.08,3.08-.15,4.62-.24-1.54.09-3.08.16-4.62.24Z"/><path class="cls-2" d="M309.27,328.99c1.83-.14,3.66-.28,5.48-.44-1.82.15-3.65.3-5.48.44Z"/><path class="cls-2" d="M315.44,328.5c1.93-.16,3.86-.33,5.78-.51-1.92.18-3.85.35-5.78.51Z"/><path class="cls-2" d="M262.58,330.97c-2.19.02-4.38.03-6.58.03-13.37,0-26.58-.37-39.59-1.1,13.01.73,26.22,1.1,39.59,1.1,2.2,0,4.39-.01,6.58-.03Z"/><path class="cls-2" d="M321.6,327.95c2.02-.19,4.04-.39,6.06-.6-2.01.21-4.03.41-6.06.6Z"/><path class="cls-2" d="M284.32,330.43c1.48-.06,2.95-.12,4.43-.19-1.47.07-2.95.13-4.43.19Z"/><path class="cls-2" d="M147.09,322.43c6.08.98,12.23,1.89,18.44,2.71-6.21-.82-12.35-1.72-18.44-2.71Z"/><path class="cls-2" d="M277.92,330.66c1.44-.04,2.88-.09,4.31-.14-1.44.05-2.88.1-4.31.14Z"/><path class="cls-2" d="M94.24,311.47c3.77.96,7.57,1.89,11.4,2.79-3.84-.9-7.64-1.83-11.4-2.79Z"/><path class="cls-2" d="M105.64,314.26c3.84.9,7.7,1.76,11.6,2.59-3.9-.83-7.77-1.69-11.6-2.59Z"/><path class="cls-2" d="M271.4,330.83c1.43-.03,2.87-.06,4.29-.1-1.43.04-2.86.07-4.29.1Z"/><path class="cls-2" d="M171.75,325.93c6.25.77,12.56,1.45,18.92,2.05-6.36-.6-12.67-1.28-18.92-2.05Z"/><path class="cls-2" d="M264.58,330.94c1.52-.02,3.05-.04,4.56-.06-1.52.03-3.04.05-4.56.06Z"/><path class="cls-2" d="M190.67,327.97c8.48.8,17.07,1.44,25.74,1.92-8.67-.49-17.26-1.13-25.74-1.92Z"/><path class="cls-2" d="M155.91,218.4c2.4,3.21,5.1,6.18,8.06,8.87-2.96-2.69-5.66-5.66-8.06-8.87Z"/><path class="cls-2" d="M168.6,231.09c-1.6-1.2-3.15-2.47-4.63-3.82,1.48,1.34,3.02,2.62,4.63,3.82Z"/><path class="cls-2" d="M148.41,205.33c-1.19-2.8-2.17-5.71-2.94-8.71.77,3,1.76,5.91,2.94,8.71Z"/><path class="cls-2" d="M145.47,196.62c-.51-2-.93-4.03-1.25-6.1.32,2.07.73,4.11,1.25,6.1Z"/><path class="cls-2" d="M248.03,227.27c2.96-2.69,5.66-5.66,8.06-8.87-2.4,3.21-5.1,6.18-8.06,8.87Z"/><path class="cls-2" d="M184.5,239.71c-1.91-.7-3.79-1.49-5.61-2.37,1.82.88,3.69,1.67,5.61,2.37Z"/><path class="cls-2" d="M266.53,196.62c-.77,3-1.76,5.91-2.94,8.71,1.19-2.8,2.17-5.71,2.94-8.71Z"/><path class="cls-2" d="M248.03,227.27c-1.48,1.34-3.02,2.62-4.63,3.82,1.6-1.2,3.15-2.47,4.63-3.82Z"/><path class="cls-2" d="M267.78,190.52c-.32,2.07-.73,4.11-1.25,6.1.51-2,.93-4.03,1.25-6.1Z"/><path class="cls-2" d="M240.95,232.83c-1.66,1.12-3.38,2.17-5.15,3.13,1.77-.96,3.49-2.01,5.15-3.13Z"/><path class="cls-2" d="M176.2,235.96c-1.77-.96-3.49-2.01-5.15-3.13,1.66,1.12,3.38,2.17,5.15,3.13Z"/><path class="cls-2" d="M233.1,237.34c-1.82.88-3.69,1.67-5.61,2.37,1.91-.7,3.79-1.49,5.61-2.37Z"/><path class="cls-3" d="M263.59,156.67c-1.98-4.67-4.5-9.06-7.5-13.07-1.8-2.41-3.77-4.68-5.89-6.8-.71-.71-1.43-1.4-2.17-2.07-1.48-1.34-3.02-2.62-4.63-3.82-.8-.6-1.62-1.18-2.45-1.74-1.66-1.12-3.38-2.17-5.15-3.13-.89-.48-1.78-.94-2.69-1.38-1.82-.88-3.69-1.67-5.61-2.37-6.7-2.45-13.94-3.79-21.49-3.79s-14.79,1.34-21.49,3.79c-1.91.7-3.79,1.49-5.61,2.37-.91.44-1.81.9-2.7,1.38-1.77.96-3.49,2.01-5.15,3.13-.83.56-1.65,1.14-2.45,1.74-1.6,1.2-3.15,2.47-4.63,3.82-.74.67-1.46,1.36-2.17,2.07-2.12,2.12-4.09,4.39-5.89,6.8-3,4.01-5.53,8.39-7.5,13.07s-3.4,9.64-4.19,14.81c-.47,3.1-.72,6.28-.72,9.52s.25,6.42.72,9.52c.32,2.07.73,4.11,1.25,6.1.77,3,1.76,5.91,2.94,8.71,1.98,4.67,4.5,9.06,7.5,13.07,2.4,3.21,5.1,6.18,8.06,8.87,1.48,1.34,3.02,2.62,4.63,3.82.8.6,1.62,1.18,2.45,1.74,1.66,1.12,3.38,2.17,5.15,3.13.89.48,1.78.94,2.7,1.38,1.82.88,3.69,1.67,5.61,2.37,6.7,2.45,13.94,3.79,21.49,3.79s14.79-1.34,21.49-3.79c1.91-.7,3.79-1.49,5.61-2.37.91-.44,1.81-.9,2.69-1.38,1.77-.96,3.49-2.01,5.15-3.13.83-.56,1.65-1.14,2.45-1.74,1.6-1.2,3.15-2.47,4.63-3.82,2.96-2.69,5.66-5.66,8.06-8.87,3-4.01,5.53-8.39,7.5-13.07,1.19-2.8,2.17-5.71,2.94-8.71.51-2,.93-4.03,1.25-6.1.47-3.1.72-6.28.72-9.52s-.25-6.42-.72-9.52c-.79-5.17-2.21-10.14-4.19-14.81ZM206,206c-13.83,0-25-11.17-25-25s11.17-25,25-25,25,11.17,25,25-11.17,25-25,25Z"/><path class="cls-1" d="M206,156c-13.83,0-25,11.17-25,25s11.17,25,25,25,25-11.17,25-25-11.17-25-25-25Z"/><path class="cls-1" d="M406,231v-50h-62.5v-50h37.5v-31.13c-34.22-27.45-77.73-43.87-125-43.87-110.47,0-200,89.53-200,200,0,6.09.27,12.11.8,18.05,56.35,20,124.82,31.95,199.2,31.95s142.81-11.95,198.52-31.95c1.25-5.94,1.48-11.95,1.48-18.05,0-8.44-.55-16.8-1.56-25h-48.44ZM267.78,190.52c-.32,2.07-.73,4.11-1.25,6.1-.77,3-1.76,5.91-2.94,8.71-1.98,4.67-4.5,9.06-7.5,13.07-2.4,3.21-5.1,6.18-8.06,8.87-1.48,1.34-3.02,2.62-4.63,3.82-.8.6-1.62,1.18-2.45,1.74-1.66,1.12-3.38,2.17-5.15,3.13-.89.48-1.78.94-2.69,1.38-1.82.88-3.69,1.67-5.61,2.37-6.7,2.45-13.94,3.79-21.49,3.79s-14.79-1.34-21.49-3.79c-1.91-.7-3.79-1.49-5.61-2.37-.91-.44-1.81-.9-2.7-1.38-1.77-.96-3.49-2.01-5.15-3.13-.83-.56-1.65-1.14-2.45-1.74-1.6-1.2-3.15-2.47-4.63-3.82-2.96-2.69-5.66-5.66-8.06-8.87-3-4.01-5.53-8.39-7.5-13.07-1.19-2.8-2.17-5.71-2.94-8.71-.51-2-.93-4.03-1.25-6.1-.47-3.1-.72-6.28-.72-9.52s.25-6.42.72-9.52c.79-5.17,2.21-10.14,4.19-14.81s4.5-9.06,7.5-13.07c1.8-2.41,3.77-4.68,5.89-6.8.71-.71,1.43-1.4,2.17-2.07,1.48-1.34,3.02-2.62,4.63-3.82.8-.6,1.62-1.18,2.45-1.74,1.66-1.12,3.38-2.17,5.15-3.13.89-.48,1.78-.94,2.7-1.38,1.82-.88,3.69-1.67,5.61-2.37,6.7-2.45,13.94-3.79,21.49-3.79s14.79,1.34,21.49,3.79c1.91.7,3.79,1.49,5.61,2.37.91.44,1.81.9,2.69,1.38,1.77.96,3.49,2.01,5.15,3.13.83.56,1.65,1.14,2.45,1.74,1.6,1.2,3.15,2.47,4.63,3.82.74.67,1.46,1.36,2.17,2.07,2.12,2.12,4.09,4.39,5.89,6.8,3,4.01,5.53,8.39,7.5,13.07s3.4,9.64,4.19,14.81c.47,3.1.72,6.28.72,9.52s-.25,6.42-.72,9.52Z"/><path class="cls-1" d="M321.6,327.95c-.13.01-25.78,1.94-26.33,1.97-1.54.09-25.37.95-26.12.96-1.52.03-10.95.12-13.14.12-13.37,0-26.58-.37-39.59-1.1-8.67-.49-17.26-1.13-25.74-1.92-6.36-.6-12.67-1.28-18.92-2.05-2.08-.26-4.16-.52-6.23-.79-6.21-.82-12.35-1.72-18.44-2.71-10.14-1.64-20.09-3.5-29.84-5.58-3.9-.83-7.77-1.69-11.6-2.59-3.84-.9-7.64-1.83-11.4-2.79-11.3-2.89-22.29-6.07-32.93-9.53,20.77,88.36,100.08,154.06,194.69,154.06,59.77,0,113.36-26.17,150-67.73v-32.27h-50v-32.19c-9.27,1.37-18.7,2.54-28.26,3.53-.03,0-4.12.42-6.15.61Z"/></g></svg>